<?xml version="1.0" standalone="no"?>
<!DOCTYPE svg PUBLIC "-//W3C//DTD SVG 20010904//EN"
 "http://www.w3.org/TR/2001/REC-SVG-20010904/DTD/svg10.dtd">
<svg version="1.0" xmlns="http://www.w3.org/2000/svg"
 width="518.000000pt" height="381.000000pt" viewBox="0 0 518.000000 381.000000"
 preserveAspectRatio="xMidYMid meet">
<g transform="translate(0.000000,381.000000) scale(0.100000,-0.100000)"
fill="#ffffff" stroke="none">
<path d="M2560 3593 c-26 -10 -48 -43 -43 -63 6 -23 -6 -26 -27 -7 -7 6 -4 -1
8 -17 26 -34 28 -83 4 -113 -13 -17 -43 -28 -127 -47 -147 -33 -245 -75 -367
-157 -124 -85 -263 -241 -328 -368 -38 -76 -87 -225 -93 -282 -7 -63 -30 -105
-65 -117 -36 -12 -70 2 -91 39 -13 24 -13 29 2 53 19 28 54 34 76 14 10 -11
11 -10 6 5 -5 10 -18 17 -35 17 -39 0 -70 -41 -70 -93 0 -22 -6 -48 -14 -56
-24 -27 -26 -65 -4 -92 11 -13 16 -18 12 -10 -5 9 -3 12 5 7 8 -5 9 -23 5 -55
-5 -37 -2 -51 11 -64 23 -23 64 -21 85 3 23 27 31 15 35 -58 3 -48 2 -54 -8
-37 -11 19 -21 22 -68 17 -9 -1 -16 -9 -16 -17 0 -13 3 -13 18 1 22 19 56 11
64 -17 4 -10 9 -17 13 -15 4 2 8 -12 9 -33 2 -47 60 -174 75 -165 7 4 8 3 4
-5 -9 -15 18 -75 42 -93 9 -7 18 -20 20 -28 5 -22 22 -40 56 -57 50 -26 57
-44 24 -62 -23 -11 -23 -11 0 -5 14 3 33 -2 51 -15 15 -11 31 -17 35 -13 4 4
6 0 4 -8 -1 -8 2 -14 8 -13 7 1 11 -5 10 -15 0 -9 4 -17 11 -17 6 0 15 -4 20
-9 5 -5 2 -6 -7 -2 -8 4 -4 -2 10 -13 14 -11 31 -19 37 -16 7 2 12 -1 10 -7
-3 -17 156 -104 246 -134 102 -34 124 -55 91 -88 -22 -22 -44 -20 -44 5 0 15
4 19 16 15 9 -4 14 -1 12 5 -2 6 -37 24 -78 39 -113 41 -231 104 -284 153 -21
18 -36 22 -36 10 0 -5 14 -16 31 -25 18 -11 27 -22 23 -29 -4 -7 -3 -9 3 -6 6
4 17 0 24 -9 12 -15 102 -65 114 -64 3 1 17 -8 32 -20 14 -11 33 -20 42 -20
25 0 88 -34 84 -46 -2 -5 3 -18 10 -28 17 -24 49 -14 67 20 12 21 12 29 -3 54
-17 29 -12 32 24 16 9 -4 20 -6 25 -5 5 1 17 1 27 0 16 -1 16 -3 1 -26 -18
-28 -13 -69 13 -97 20 -22 39 -22 77 -3 36 19 36 19 36 -4 0 -23 25 -51 47
-51 8 0 29 14 45 32 29 31 31 32 44 13 8 -10 14 -13 14 -6 0 6 6 11 13 10 43
-5 78 31 75 77 -1 19 -7 34 -13 34 -5 0 -3 4 5 9 8 6 17 8 21 5 4 -2 12 3 19
11 11 14 44 10 35 -4 -2 -4 -7 -22 -10 -39 -11 -63 57 -84 85 -26 9 17 21 29
28 26 7 -2 12 1 12 7 0 6 7 11 15 11 8 0 30 9 50 20 19 11 35 17 35 13 0 -3 9
2 19 11 11 10 25 15 32 10 7 -4 10 -3 6 3 -4 6 3 13 16 17 12 3 34 17 49 31
15 14 32 25 37 25 5 0 16 9 24 20 8 11 18 17 23 12 5 -4 6 -3 2 2 -4 5 4 18
18 28 14 11 23 22 21 25 -3 2 -36 -20 -75 -49 -93 -70 -242 -145 -321 -163
-29 -6 -47 -38 -19 -33 7 2 13 -4 13 -12 0 -21 -35 -19 -49 3 -17 27 3 48 75
74 141 51 326 154 313 174 -3 5 -2 8 3 7 4 -2 18 5 31 14 16 11 19 17 10 21
-10 3 -9 9 5 23 18 19 19 19 33 -1 8 -11 12 -25 10 -32 -7 -17 38 -17 52 0 13
15 37 75 26 64 -4 -4 -13 -2 -21 4 -7 6 -22 9 -33 6 -16 -4 -18 -2 -11 11 5
10 19 23 30 31 11 8 18 18 15 23 -6 10 10 11 19 1 4 -3 2 -12 -5 -20 -8 -10
-8 -17 1 -26 9 -9 21 -2 54 33 44 47 122 160 111 160 -4 0 0 8 8 18 20 23 45
75 53 112 4 16 11 30 17 30 6 0 8 6 5 13 -3 9 2 13 15 13 12 -1 23 5 25 12 3
7 -1 11 -9 10 -7 -2 -12 5 -12 15 4 40 -23 6 -48 -64 -38 -102 -85 -192 -138
-263 -64 -84 -69 -90 -75 -84 -3 3 18 39 48 80 60 85 127 216 151 297 9 30 24
63 33 74 17 19 17 20 -3 9 -12 -6 -25 -8 -29 -4 -5 4 -5 -1 -2 -11 4 -11 3
-17 -4 -15 -14 5 -14 6 -1 60 13 51 25 56 54 23 11 -13 17 -15 18 -7 0 7 4 10
10 7 5 -3 22 6 36 20 22 22 26 33 21 66 -3 27 -1 44 9 54 23 23 32 58 22 87
-6 16 -16 28 -23 28 -9 0 -11 13 -9 43 4 37 3 39 -7 17 -17 -41 -40 -60 -74
-60 -49 0 -72 33 -90 127 -38 199 -123 361 -269 511 -148 153 -303 239 -516
287 -115 27 -150 51 -150 103 0 35 26 72 51 72 10 0 19 4 19 10 0 6 -9 6 -24
0 -13 -5 -27 -7 -30 -4 -3 2 -4 1 -1 -3 3 -3 -2 -11 -9 -17 -8 -6 -16 -27 -18
-46 -2 -19 -10 -38 -18 -42 -13 -6 -13 -7 0 -7 8 -1 21 -14 28 -29 13 -30 48
-52 85 -52 56 -1 277 -76 277 -94 0 -6 -40 8 -69 24 -29 15 -178 51 -226 54
-70 5 -53 -10 21 -18 75 -8 207 -47 279 -84 131 -66 270 -183 351 -298 20 -27
41 -48 49 -46 7 1 16 -2 20 -8 3 -6 0 -7 -9 -4 -21 8 -22 9 23 -81 45 -92 93
-258 94 -323 0 -8 4 -9 10 -3 12 12 -35 216 -62 269 -11 22 -17 43 -13 46 3 4
0 12 -8 17 -13 9 -13 10 0 6 23 -6 80 -172 95 -279 5 -33 17 -58 41 -85 19
-21 40 -37 45 -35 6 1 20 0 32 -4 18 -6 19 -7 4 -16 -10 -5 -21 -7 -26 -3 -5
3 -13 0 -17 -6 -5 -9 -11 -7 -19 5 -12 16 -13 16 -19 0 -6 -15 -10 -13 -36 11
-17 16 -30 35 -30 42 0 7 -4 13 -9 13 -5 0 -16 42 -26 93 -59 309 -248 550
-534 680 -75 34 -237 77 -289 77 -29 0 -33 -2 -22 -15 7 -8 23 -15 36 -15 22
0 101 -16 134 -28 8 -3 19 -4 23 -3 14 3 159 -69 244 -121 79 -48 133 -101
133 -131 0 -9 -15 -14 -52 -15 -29 -1 -75 -3 -101 -5 -27 -1 -51 1 -54 5 -2 5
-9 5 -15 2 -6 -4 -85 -8 -177 -9 -249 -4 -243 -4 -236 -15 7 -12 617 -8 650 4
19 7 20 2 23 -106 4 -124 16 -164 21 -65 2 56 5 89 9 124 1 7 9 10 17 7 8 -4
12 -10 9 -15 -3 -5 0 -9 6 -9 6 0 16 -12 23 -27 6 -16 14 -30 18 -33 28 -22
99 -213 119 -317 5 -30 14 -61 19 -70 6 -11 4 -21 -5 -31 -15 -14 -9 -64 8
-70 5 -2 4 -10 -2 -17 -6 -7 -12 -26 -15 -41 -9 -66 -25 -136 -36 -157 -7 -12
-12 -24 -11 -27 3 -7 -19 -73 -28 -85 -4 -5 -10 -22 -14 -37 -3 -16 -11 -28
-16 -28 -6 0 -10 -7 -10 -14 0 -8 -11 -27 -25 -42 -13 -14 -22 -31 -18 -37 4
-6 0 -8 -11 -4 -9 4 -15 3 -13 -1 8 -12 -12 -54 -23 -47 -5 3 -10 1 -10 -5 0
-6 -13 -24 -29 -39 -16 -16 -27 -32 -24 -35 4 -3 0 -6 -8 -6 -8 0 -20 -9 -27
-20 -7 -12 -17 -18 -22 -15 -6 4 -13 -1 -16 -9 -3 -9 -11 -13 -17 -9 -6 3 -7
1 -3 -5 7 -12 -5 -16 -31 -13 -7 1 -11 -4 -8 -11 4 -14 -100 -71 -129 -71 -9
0 -16 -5 -16 -10 0 -5 -7 -7 -14 -4 -11 4 -13 1 -9 -10 4 -11 3 -14 -5 -9 -7
4 -38 -2 -69 -14 -32 -12 -77 -23 -102 -26 -57 -6 -66 -14 -15 -14 61 1 193
44 290 95 245 129 421 363 474 630 14 69 28 114 39 122 9 7 12 13 7 13 -6 0
-2 6 9 14 17 12 71 13 83 1 7 -6 -46 -55 -59 -55 -6 0 -7 -5 -3 -11 4 -8 0 -8
-15 0 -19 10 -21 9 -21 -12 0 -44 -49 -219 -80 -285 -105 -225 -300 -405 -534
-492 -67 -25 -179 -50 -228 -50 -21 0 -38 -4 -38 -10 0 -31 216 9 324 61 57
27 69 23 16 -5 -57 -30 -189 -72 -257 -81 -31 -4 -54 -12 -57 -21 -3 -9 -10
-12 -16 -9 -5 3 -10 -1 -10 -10 0 -9 -4 -14 -8 -11 -7 4 -11 -15 -12 -60 0
-18 -6 -21 -36 -19 -42 3 -43 3 -46 43 -2 30 -46 87 -62 82 -22 -8 -246 54
-284 78 -31 20 -20 27 15 9 80 -41 326 -90 301 -60 -6 7 -22 13 -37 13 -43 1
-182 36 -247 62 -259 107 -462 331 -547 603 -20 63 -41 194 -33 202 12 13 23
-13 36 -87 17 -98 38 -170 51 -170 6 0 7 -5 4 -10 -10 -15 61 -147 118 -220
118 -152 288 -270 467 -325 56 -17 180 -33 169 -21 -3 3 -29 8 -57 11 -28 2
-70 11 -94 20 -24 8 -51 15 -60 15 -9 0 -23 7 -32 15 -8 9 -18 16 -21 15 -18
-1 -24 2 -44 19 -13 11 -28 18 -34 15 -7 -2 -24 7 -39 21 -16 14 -28 22 -28
18 0 -4 -6 -1 -13 7 -7 8 -30 28 -52 45 -49 36 -111 97 -108 107 2 4 -6 9 -16
13 -18 5 -34 27 -36 50 -2 22 -27 55 -40 55 -9 0 -15 10 -15 25 0 14 -4 25 -9
25 -9 0 -42 62 -45 85 -1 7 -7 19 -13 26 -6 8 -14 34 -18 59 -4 24 -10 51 -15
60 -4 8 -11 38 -15 67 -7 55 -23 77 -48 67 -19 -7 -16 -34 19 -214 3 -14 12
-45 20 -69 21 -63 11 -62 -14 1 -20 52 -24 70 -42 175 -9 56 -54 117 -94 129
-25 8 -36 22 -36 48 0 12 5 16 15 12 8 -3 15 -1 15 4 0 6 5 10 11 10 7 0 25
14 42 32 28 29 31 30 43 13 16 -22 19 -17 34 75 34 201 132 383 284 528 49 46
71 74 65 81 -6 8 -5 8 3 1 13 -11 52 6 43 19 -2 5 3 8 13 7 11 -1 16 5 14 17
-2 12 8 22 34 33 20 8 38 13 41 11 2 -3 -12 -11 -31 -18 -20 -7 -36 -17 -36
-21 0 -11 -1 -12 64 22 102 53 260 100 337 100 25 0 28 2 17 14 -8 8 -19 11
-28 6 -8 -4 -37 -11 -65 -15 -27 -4 -86 -21 -130 -37 -44 -16 -91 -31 -105
-34 -29 -5 62 39 111 54 94 29 148 42 172 42 15 0 27 4 27 8 0 5 11 15 25 22
14 8 28 25 31 39 10 44 28 81 40 81 23 0 55 36 58 67 3 23 1 30 -9 27 -7 -3
-15 2 -18 10 -7 17 -12 18 -37 9z m40 -34 c9 -15 8 -24 -1 -35 -18 -22 -53
-13 -57 15 -6 40 39 56 58 20z m-645 -458 c3 -5 -13 -20 -35 -32 -22 -12 -42
-30 -45 -40 -3 -9 -13 -23 -23 -31 -15 -12 -15 -10 1 15 10 15 15 27 11 27
-13 0 41 37 64 44 12 4 20 12 17 17 -4 5 -4 9 -1 9 3 0 7 -4 11 -9z m-132
-126 c-3 -9 -8 -14 -10 -11 -3 3 -2 9 2 15 9 16 15 13 8 -4z m-30 -55 c-9 -16
-23 -30 -30 -30 -19 0 -16 10 9 37 30 32 42 29 21 -7z m-43 -44 c0 -17 -14
-35 -24 -29 -6 4 -6 0 2 -9 7 -9 9 -18 4 -20 -13 -5 -74 -138 -84 -183 -5 -22
-14 -70 -20 -107 -6 -38 -15 -68 -20 -68 -4 0 -8 3 -8 8 0 10 19 123 25 147
20 86 99 265 117 265 4 0 8 -2 8 -4z m-293 -492 c8 -22 -10 -49 -32 -49 -10 0
-22 7 -28 16 -15 24 -1 49 28 49 15 0 28 -7 32 -16z m2291 -13 c6 -37 -26 -52
-52 -25 -12 12 -13 20 -5 35 15 28 53 21 57 -10z m-220 -4 c4 -20 -25 -34 -40
-19 -15 15 -1 44 19 40 10 -2 19 -11 21 -21z m132 -24 c0 -7 -9 -13 -20 -13
-11 0 -20 6 -20 13 0 7 9 13 20 13 11 0 20 -6 20 -13z m-2129 -33 c28 -15 47
-59 60 -139 7 -39 15 -68 19 -66 5 3 6 -3 3 -13 -9 -37 119 -298 140 -285 6 3
7 1 4 -4 -10 -16 40 -79 125 -159 142 -134 286 -211 478 -254 139 -32 148 -36
156 -77 8 -44 -8 -81 -42 -93 -38 -15 -74 10 -74 50 0 33 13 45 38 35 16 -6
16 -8 -2 -20 -23 -17 -14 -45 13 -45 12 0 28 12 37 26 16 24 16 27 -3 52 -16
21 -33 28 -90 38 -324 54 -608 271 -749 571 -45 95 -55 127 -81 253 -16 82
-34 110 -70 110 -31 0 -52 -42 -33 -65 12 -14 15 -14 30 0 21 19 33 9 19 -16
-24 -47 -100 1 -84 53 16 52 60 72 106 48z m2164 -15 c29 -28 31 -51 9 -83
-25 -36 -60 -27 -77 21 -8 23 -2 22 22 -4 22 -24 41 -18 41 15 0 28 -18 46
-46 46 -32 0 -43 -19 -60 -101 -23 -113 -43 -177 -80 -254 -95 -203 -252 -368
-454 -478 -78 -43 -227 -93 -301 -103 -62 -7 -94 -24 -102 -53 -6 -26 19 -61
44 -61 22 0 39 32 21 38 -17 5 -15 32 3 32 8 0 19 -9 25 -20 35 -65 -65 -105
-105 -43 -32 49 4 123 60 123 41 1 212 49 276 78 93 42 200 112 192 124 -4 7
-1 8 6 4 14 -9 53 22 45 36 -3 4 -1 7 4 6 6 -2 10 2 10 7 0 6 -4 9 -10 7 -5
-1 -7 2 -3 8 3 6 11 8 16 5 5 -4 9 0 9 7 0 7 10 19 22 27 21 13 21 13 -1 -14
-30 -39 -16 -46 17 -10 164 179 240 330 283 558 18 97 81 136 134 82z m-2181
-33 c3 -5 -1 -9 -9 -9 -8 0 -12 4 -9 9 3 4 7 8 9 8 2 0 6 -4 9 -8z m2017 -79
c-18 -89 -52 -193 -63 -193 -5 0 -6 -4 -3 -10 3 -5 1 -10 -4 -10 -6 0 -11 -5
-11 -11 0 -5 6 -7 13 -3 6 4 4 -2 -5 -13 -10 -11 -18 -26 -18 -34 0 -15 -58
-101 -72 -107 -5 -2 -6 -8 -3 -12 3 -5 0 -12 -6 -16 -8 -4 -9 -3 -5 4 4 7 2
12 -3 12 -6 0 -11 -5 -11 -12 0 -6 -3 -8 -7 -5 -3 4 7 19 23 35 16 15 30 34
32 42 2 8 11 22 22 31 11 9 17 19 14 22 -3 3 -1 13 4 24 46 89 95 253 95 321
0 8 4 9 10 3 7 -7 6 -30 -2 -68z m-1801 -303 c0 -9 8 -27 17 -40 17 -25 17
-25 -5 -6 -12 11 -22 25 -22 33 0 7 -6 13 -12 14 -10 0 -10 2 -1 6 9 3 9 11
-3 31 -16 27 -16 27 5 2 11 -14 21 -32 21 -40z m1783 -16 c-8 -21 -31 -25 -26
-5 2 10 10 18 18 18 7 0 11 -6 8 -13z m-62 -97 c-6 -14 -20 -31 -33 -38 -23
-12 -23 -12 -2 12 12 13 24 33 28 43 3 10 9 17 12 14 2 -3 0 -17 -5 -31z
m-1714 -52 c0 -8 -4 -12 -9 -9 -4 3 -8 9 -8 15 0 5 4 9 8 9 5 0 9 -7 9 -15z
m1633 -110 c15 -18 5 -35 -21 -35 -24 0 -37 29 -18 41 19 12 25 11 39 -6z
m-1325 -56 c11 -16 1 -19 -13 -3 -7 8 -8 14 -3 14 5 0 13 -5 16 -11z m1210 1
c-3 -5 -12 -10 -18 -10 -7 0 -6 4 3 10 19 12 23 12 15 0z m-783 -268 c3 -11 0
-19 -7 -19 -7 0 -10 8 -7 19 2 10 6 18 7 18 1 0 5 -8 7 -18z m223 -12 c3 -6
-1 -7 -9 -4 -18 7 -21 14 -7 14 6 0 13 -4 16 -10z m-94 -36 c17 -21 0 -49 -32
-49 -24 0 -36 23 -25 51 7 19 40 18 57 -2z"/>
<path d="M2405 3510 c-13 -14 -18 -35 -17 -69 1 -45 -1 -49 -26 -55 -15 -3
-38 -9 -51 -12 -25 -7 -25 -7 -2 29 12 21 19 37 14 37 -4 0 -14 -9 -20 -20 -8
-11 -37 -26 -70 -36 -98 -28 -265 -119 -342 -186 -31 -27 -32 -29 -10 -26 13
1 32 12 41 23 10 11 17 16 18 11 0 -5 8 -2 18 5 15 13 16 12 3 -3 -7 -10 -17
-15 -22 -13 -4 3 -13 -4 -19 -15 -6 -11 -14 -19 -18 -16 -4 2 -16 -2 -26 -9
-17 -13 -17 -14 5 -12 22 1 154 92 154 106 0 13 17 31 28 31 6 0 2 -7 -9 -15
-28 -21 -11 -18 36 6 22 12 38 25 35 29 -3 5 0 12 6 16 8 5 9 3 4 -6 -6 -10
-3 -11 11 -7 10 4 58 20 106 36 47 16 115 35 150 41 69 13 98 32 98 65 0 27
-34 59 -55 51 -22 -8 -31 -36 -14 -47 8 -5 15 -4 17 1 2 6 8 7 14 4 5 -3 0
-13 -12 -21 -16 -12 -24 -12 -35 -3 -20 17 -19 59 2 82 9 10 14 18 11 18 -3 0
-13 -9 -23 -20z"/>
<path d="M2716 3515 c25 -19 40 -19 24 0 -7 8 -20 15 -28 15 -13 0 -12 -3 4
-15z"/>
<path d="M2660 3480 c-43 -43 -12 -83 80 -100 85 -15 179 -46 260 -84 36 -16
71 -30 78 -29 7 1 11 -1 8 -4 -8 -8 106 -83 116 -77 5 3 8 2 7 -3 -4 -16 179
-191 190 -182 8 6 8 5 1 -3 -14 -17 6 -48 28 -42 14 5 15 4 2 -5 -13 -9 -13
-12 3 -28 17 -17 18 -17 11 0 -4 10 -1 17 7 17 7 0 9 -3 6 -7 -4 -3 -1 -13 6
-21 9 -13 9 -14 0 -8 -19 11 -17 3 26 -82 45 -88 76 -177 91 -264 15 -82 25
-105 49 -113 29 -9 61 11 61 40 0 30 -16 41 -36 24 -17 -14 -29 -6 -21 16 8
19 51 20 71 0 25 -25 31 -17 6 10 -17 19 -29 23 -49 19 -28 -7 -53 -32 -45
-45 3 -5 1 -9 -4 -9 -6 0 -10 10 -10 23 0 12 -4 39 -10 60 -11 41 -2 49 17 15
6 -13 9 -15 7 -5 -5 15 -3 16 16 6 19 -10 25 -8 50 21 15 18 25 37 22 42 -3 4
-15 -4 -28 -18 -33 -39 -58 -21 -86 63 -43 131 -170 353 -202 353 -7 0 -7 -5
1 -14 9 -11 9 -16 0 -22 -8 -4 -9 -3 -5 4 6 11 -5 16 -26 13 -11 -1 -4 34 8
51 6 7 14 20 19 28 6 12 5 13 -6 3 -20 -20 -45 -15 -57 10 -11 22 -11 22 -11
0 -2 -42 -33 -17 -35 28 -3 44 -254 197 -371 225 -45 11 -75 34 -75 57 0 11
-3 18 -6 15 -10 -11 -11 -42 -3 -66 7 -17 6 -21 -3 -16 -12 8 -34 13 -71 16
-10 2 -15 8 -12 15 20 50 20 49 0 29 -18 -18 -19 -18 -32 0 -13 18 -14 18 -19
-4 -4 -12 -11 -19 -16 -16 -14 9 21 44 38 37 17 -6 19 18 2 35 -17 17 -25 15
-48 -8z m604 -317 c3 -7 0 -15 -7 -19 -7 -4 -8 -3 -4 1 4 5 -3 15 -15 21 -23
13 -23 13 -1 11 12 -1 25 -7 27 -14z"/>
<path d="M2868 3484 c12 -9 22 -23 22 -31 0 -10 -6 -12 -22 -8 -20 6 -21 5 -8
-8 8 -8 44 -24 79 -36 35 -12 81 -31 102 -42 22 -10 39 -18 39 -15 0 9 -72 46
-112 56 -32 9 -38 14 -27 22 10 7 8 8 -8 3 -25 -7 -39 10 -24 29 8 9 2 16 -27
29 -33 15 -34 15 -14 1z"/>
<path d="M2247 3473 c-4 -3 -7 -15 -7 -25 0 -13 -13 -24 -37 -34 -21 -8 -52
-22 -70 -30 -17 -8 -36 -14 -42 -14 -6 0 -11 -4 -11 -10 0 -5 -5 -10 -11 -10
-5 0 -27 -11 -47 -25 -20 -14 -31 -25 -25 -25 7 0 14 4 17 8 9 15 138 76 205
97 36 12 67 27 69 35 3 9 -1 11 -12 7 -14 -6 -21 3 -17 26 1 9 -4 9 -12 0z"/>
<path d="M2552 3397 c-2 -16 -8 -44 -17 -90 -5 -24 -3 -42 4 -51 14 -17 47
-10 55 11 4 11 2 13 -9 10 -8 -4 -22 1 -30 10 -14 14 -14 18 -2 30 16 17 47 7
47 -15 0 -8 3 -12 7 -9 9 10 -18 57 -33 57 -23 0 -27 21 -5 27 12 3 21 10 21
16 0 6 -3 7 -7 4 -3 -4 -11 -2 -18 3 -8 6 -12 6 -13 -3z"/>
<path d="M3106 3326 c10 -8 21 -12 24 -10 5 6 -21 24 -34 24 -6 0 -1 -6 10
-14z"/>
<path d="M3175 3310 c-3 -5 -13 -6 -23 -3 -9 3 -15 4 -12 2 3 -2 18 -15 35
-29 22 -18 25 -19 13 -4 -14 16 -15 23 -6 32 7 7 9 12 6 12 -4 0 -9 -4 -13
-10z"/>
<path d="M1954 3278 c-19 -23 -19 -23 4 -4 21 18 27 26 19 26 -2 0 -12 -10
-23 -22z"/>
<path d="M2353 3254 c-181 -47 -315 -126 -445 -263 -84 -88 -144 -179 -186
-280 -26 -64 -62 -203 -62 -243 0 -17 -8 -31 -20 -38 -11 -6 -17 -16 -14 -25
4 -8 1 -15 -5 -15 -6 0 -11 -5 -11 -11 0 -8 4 -8 15 1 8 6 18 9 23 6 6 -3 10
4 10 17 0 12 10 63 22 112 12 50 23 98 25 108 2 10 15 43 29 73 14 30 24 55
23 57 -1 1 9 18 23 37 13 19 25 41 27 49 1 9 9 21 17 27 9 6 16 14 16 18 0 7
160 169 199 201 16 13 21 15 16 5 -4 -8 5 -3 21 11 27 24 168 98 197 103 6 1
36 10 66 19 30 9 64 17 75 17 12 0 39 9 61 19 40 19 40 19 5 19 -19 0 -77 -10
-127 -24z"/>
<path d="M1915 3250 c-4 -6 -10 -8 -15 -5 -4 3 -11 -2 -14 -11 -9 -25 -4 -24
24 2 13 13 22 24 18 24 -4 0 -10 -5 -13 -10z"/>
<path d="M1769 3153 c-13 -15 -12 -15 8 -2 27 16 50 1 39 -26 -4 -12 -13 -15
-31 -11 -18 5 -25 2 -25 -9 0 -8 5 -15 11 -15 5 0 8 -4 4 -9 -3 -6 7 -8 22 -5
28 4 28 4 -8 -30 -20 -18 -39 -41 -42 -50 -4 -9 -11 -16 -17 -16 -6 0 -8 -4
-5 -10 3 -5 2 -10 -3 -10 -19 0 -21 14 -3 39 10 14 24 37 30 51 12 25 12 25
-9 0 -36 -42 -110 -158 -110 -172 0 -7 13 1 28 17 16 17 27 32 26 35 -5 12 14
32 20 22 3 -6 -9 -27 -27 -47 -17 -20 -33 -41 -33 -46 -1 -5 -2 -16 -3 -25 0
-8 -5 -13 -10 -10 -5 3 -8 -2 -7 -11 0 -9 -5 -18 -13 -21 -10 -3 -11 0 -5 9 5
8 9 20 11 28 1 8 7 17 13 21 9 6 9 9 1 14 -12 8 -45 -59 -76 -154 -29 -91 -57
-110 -94 -64 -24 31 -25 29 -10 -15 12 -34 47 -43 69 -16 7 8 16 12 21 9 5 -3
6 1 4 8 -3 8 1 22 8 32 12 16 14 16 14 2 0 -9 -3 -16 -6 -16 -3 0 -7 -12 -7
-27 -2 -26 -10 -81 -14 -93 -2 -3 -2 -8 -1 -12 0 -4 -4 -19 -9 -33 -11 -29
-32 -32 -51 -7 -13 15 -12 16 4 3 12 -9 17 -10 17 -2 0 7 5 9 10 6 6 -3 10 -3
10 2 0 11 -44 30 -58 25 -7 -2 -12 -15 -12 -28 0 -35 41 -52 72 -32 18 12 27
34 41 103 42 206 126 367 270 519 31 33 55 61 54 63 -2 1 -15 -4 -30 -12 -26
-13 -27 -13 -23 11 3 13 1 22 -4 19 -5 -3 -11 -1 -15 5 -9 15 -31 12 -46 -7z
m-163 -385 c-5 -24 -29 -68 -38 -68 -5 0 -2 10 6 23 15 21 16 26 16 47 0 6 4
10 9 10 5 0 8 -6 7 -12z"/>
<path d="M3343 3163 c9 -2 23 -2 30 0 6 3 -1 5 -18 5 -16 0 -22 -2 -12 -5z"/>
<path d="M1676 3018 c-16 -18 -33 -43 -39 -55 -6 -13 -15 -23 -20 -23 -6 0 -8
-3 -5 -6 4 -3 -5 -22 -18 -41 -13 -20 -24 -40 -24 -45 0 -4 -11 -25 -24 -46
-12 -20 -24 -41 -24 -47 -5 -35 -22 -64 -35 -59 -8 3 -18 1 -21 -4 -3 -5 2 -9
12 -8 11 1 16 -5 14 -16 -7 -40 18 -14 33 35 26 81 83 196 129 262 49 71 58
85 54 85 -2 0 -16 -15 -32 -32z"/>
<path d="M2160 2965 c-7 -9 -25 -13 -44 -12 -17 2 -45 -5 -63 -14 -17 -10 -34
-15 -37 -12 -3 4 -6 1 -6 -5 0 -11 -38 -28 -53 -24 -5 1 -6 -2 -3 -7 4 -5 2
-12 -4 -16 -6 -4 -8 -11 -5 -16 4 -5 1 -9 -4 -9 -6 0 -22 -23 -36 -50 -33 -66
-44 -172 -21 -215 9 -16 16 -33 16 -38 0 -25 58 -86 142 -149 54 -40 98 -76
98 -80 0 -4 -8 -6 -17 -6 -10 0 -53 -2 -96 -5 -63 -5 -85 -11 -117 -34 -21
-15 -44 -38 -51 -50 -6 -12 -16 -21 -21 -20 -13 3 -46 -96 -49 -145 -1 -24 2
-61 6 -82 8 -40 60 -128 73 -123 4 1 19 -8 32 -21 81 -76 284 -105 426 -61 38
12 76 27 85 35 8 8 18 14 22 14 3 0 25 18 49 40 24 22 46 40 51 40 4 0 7 5 7
11 0 6 7 17 15 25 8 9 15 24 15 35 0 13 4 18 12 13 6 -4 8 -3 5 3 -7 11 16 36
25 28 6 -6 2 -55 -7 -91 -5 -25 -50 -75 -59 -67 -3 4 -6 1 -6 -6 0 -15 35 -6
70 18 30 22 40 63 39 162 -1 68 2 83 31 138 18 34 49 76 69 93 36 32 36 32 39
-175 2 -207 2 -207 147 -207 183 0 236 16 295 91 21 27 44 66 50 86 7 21 19
44 28 51 9 6 11 12 5 12 -16 0 -41 -26 -49 -53 -3 -12 -13 -30 -22 -39 -8 -10
-12 -18 -8 -18 5 0 -11 -16 -34 -35 -23 -19 -47 -35 -53 -35 -8 0 -7 -3 1 -9
10 -6 9 -10 -7 -14 -12 -3 -19 -1 -16 4 3 4 -9 2 -27 -5 -33 -13 -175 -14
-244 -1 -38 7 -40 15 -43 236 -1 157 -1 157 30 168 48 17 150 14 177 -5 23
-16 58 -74 45 -74 -10 0 19 -20 29 -20 4 0 15 15 25 33 20 40 25 250 6 282
-10 16 -12 -10 -13 -132 0 -119 -3 -153 -13 -153 -7 0 -17 19 -23 42 -14 62
-47 82 -133 81 -90 -2 -174 -38 -231 -99 -24 -26 -67 -100 -109 -186 -97 -201
-153 -253 -311 -294 -175 -45 -383 29 -447 158 -48 95 -22 227 57 287 53 41
85 51 160 51 84 0 114 -11 163 -58 60 -58 71 -148 24 -199 -25 -28 -77 -39
-107 -23 -23 12 -52 69 -43 84 4 5 1 6 -5 2 -7 -4 -12 -24 -12 -45 0 -38 19
-66 50 -73 8 -2 17 -6 20 -9 11 -14 71 5 100 32 18 18 36 27 43 22 9 -5 9 -3
0 9 -7 8 -10 18 -6 22 10 9 10 136 1 130 -5 -3 -8 4 -8 15 0 24 10 27 28 9 7
-7 12 -9 12 -5 0 15 43 -30 60 -63 30 -59 40 -108 28 -136 -6 -13 -15 -24 -20
-24 -4 0 -7 -6 -5 -12 1 -7 -4 -12 -10 -11 -7 2 -12 -1 -10 -6 3 -12 -66 -59
-98 -67 -14 -3 -23 -9 -21 -13 6 -8 -86 -7 -156 3 -49 7 -65 15 -103 51 -25
24 -45 53 -45 63 0 11 -5 22 -11 24 -15 5 -14 109 3 119 7 5 9 9 5 9 -4 0 -3
9 3 20 6 11 16 17 22 14 6 -4 8 -3 5 3 -11 18 50 44 98 42 52 -3 101 -38 91
-65 -3 -9 -6 -20 -6 -25 0 -6 -4 -7 -10 -4 -5 3 -10 1 -10 -5 0 -6 -4 -8 -10
-5 -5 3 -10 -1 -10 -10 0 -29 62 -15 78 18 32 67 -28 130 -123 129 -107 -1
-175 -72 -175 -182 0 -151 155 -263 317 -230 134 28 187 79 285 277 121 244
192 297 413 313 61 4 118 11 128 15 22 9 47 56 47 89 0 15 7 26 18 29 16 4 16
5 0 6 -11 1 -25 -14 -38 -39 -26 -50 -51 -61 -157 -67 -65 -4 -83 -2 -83 9 -6
156 -5 216 3 211 5 -3 4 4 -3 17 -17 31 -3 97 24 115 30 20 231 13 273 -9 37
-19 46 -30 68 -89 12 -32 23 -47 33 -45 21 4 27 28 8 28 -10 0 -16 9 -16 23 0
12 -9 41 -20 65 -29 64 -57 72 -245 72 -155 0 -155 0 -155 -205 0 -199 -1
-205 -20 -205 -12 0 -43 -11 -70 -25 -27 -14 -51 -25 -52 -25 -2 0 -4 95 -5
211 -1 236 -6 253 -72 275 -18 6 -36 16 -40 23 -6 9 -10 7 -13 -7 -4 -16 3
-24 33 -38 39 -19 67 -63 53 -85 -4 -7 -3 -10 2 -6 5 3 9 -79 8 -197 -1 -179
-3 -206 -19 -234 -11 -18 -23 -32 -28 -32 -4 0 -5 -4 -2 -10 9 -14 -8 -12 -24
3 -11 10 -12 9 -6 -2 6 -10 4 -12 -4 -7 -7 5 -10 14 -7 22 3 9 -4 16 -19 20
-14 3 -23 9 -21 13 2 3 -13 19 -35 35 -21 17 -39 33 -39 38 0 4 -7 8 -15 8 -8
0 -15 5 -15 11 0 5 -4 8 -9 5 -4 -3 -16 3 -26 14 -10 11 -24 20 -31 20 -8 0
-19 9 -26 20 -7 11 -21 20 -30 20 -10 0 -18 7 -18 15 0 8 -3 15 -7 14 -15 -2
-53 13 -53 21 0 5 -10 12 -22 15 -13 4 -42 27 -65 51 -38 39 -41 48 -39 89 5
87 93 138 209 121 52 -8 114 -61 141 -121 40 -91 37 -87 58 -63 18 21 20 33
22 173 2 96 -9 105 -148 119 -15 2 -32 10 -37 17 -7 11 -9 11 -9 1 0 -7 -4
-11 -8 -8 -21 12 -67 15 -75 3 -7 -9 -10 -9 -14 1 -6 16 -18 15 -33 -3z m238
-41 c62 -6 62 -6 62 -58 0 -28 3 -81 7 -118 5 -59 4 -68 -11 -68 -10 0 -16 8
-16 23 0 13 -12 48 -27 77 -33 65 -88 98 -175 107 -148 15 -255 -100 -204
-220 19 -45 87 -101 228 -187 136 -83 206 -135 241 -182 25 -33 25 -33 -19
-123 -24 -49 -44 -96 -44 -102 0 -7 -4 -13 -9 -13 -5 0 -11 23 -13 50 -8 85
-65 139 -298 285 -179 112 -230 186 -217 312 11 103 87 189 194 219 47 14 149
13 301 -2z"/>
<path d="M3503 2945 c52 -79 53 -80 53 -56 0 11 -6 21 -12 21 -7 0 -15 8 -19
19 -3 10 -15 27 -27 37 -17 16 -16 13 5 -21z"/>
<path d="M3580 2805 c0 -6 4 -15 9 -20 4 -6 14 -32 21 -60 14 -52 26 -75 41
-75 10 0 -1 32 -14 41 -5 4 -9 23 -10 43 -1 21 -4 31 -9 23 -6 -9 -8 -8 -8 4
0 17 -29 60 -30 44z"/>
<path d="M3660 2696 c0 -2 7 -7 16 -10 8 -3 12 -2 9 4 -6 10 -25 14 -25 6z"/>
<path d="M1587 2366 c-10 -24 -9 -26 7 -20 7 3 16 -2 19 -10 4 -9 13 -16 20
-16 17 0 53 38 44 46 -4 4 -9 -1 -13 -10 -9 -22 -32 -20 -53 6 -16 19 -18 20
-24 4z"/>
<path d="M1506 2361 c-3 -5 1 -11 9 -15 8 -3 15 -1 15 4 0 13 -18 22 -24 11z"/>
<path d="M1555 2360 c3 -5 8 -10 11 -10 2 0 4 5 4 10 0 6 -5 10 -11 10 -5 0
-7 -4 -4 -10z"/>
<path d="M3666 2104 c12 -11 24 -26 28 -34 4 -10 5 -9 3 4 -1 10 -13 25 -27
34 -25 14 -25 14 -4 -4z"/>
<path d="M3307 2013 c-14 -43 -32 -105 -42 -138 -16 -60 -16 -60 -371 -58
-195 1 -359 5 -364 8 -15 9 -12 -23 3 -32 15 -10 707 -21 701 -11 -3 4 3 16
13 27 39 43 44 53 50 99 3 26 9 52 13 57 10 13 32 117 26 122 -3 3 -16 -30
-29 -74z"/>
<path d="M1497 2064 c5 -14 1 -16 -20 -12 -19 4 -27 1 -27 -8 0 -14 11 -18 41
-15 10 1 21 -13 30 -41 8 -24 13 -47 11 -51 -1 -4 5 -15 13 -23 8 -9 13 -20
10 -25 -4 -5 -3 -9 2 -9 4 0 13 -10 19 -23 34 -70 63 -114 102 -154 12 -13 22
-27 22 -30 0 -7 32 -32 43 -33 4 0 -19 33 -51 73 -67 85 -134 208 -162 301
-12 36 -25 66 -30 66 -5 0 -7 -7 -3 -16z"/>
<path d="M1747 1669 c7 -7 15 -10 18 -7 3 3 -2 9 -12 12 -14 6 -15 5 -6 -5z"/>
<path d="M1757 1594 c-4 -4 -2 -15 4 -25 12 -22 42 -25 58 -5 10 12 8 13 -10
9 -14 -4 -26 0 -34 10 -7 9 -15 14 -18 11z"/>
<path d="M1858 1523 c6 -2 12 -12 12 -21 0 -13 3 -13 12 -4 10 10 10 15 -2 22
-8 5 -19 9 -25 9 -5 0 -4 -3 3 -6z"/>
<path d="M2578 1460 c12 -5 22 -16 22 -25 0 -8 5 -15 11 -15 19 0 -16 45 -37
47 -14 2 -14 1 4 -7z"/>
<path d="M2529 1453 c0 -5 -2 -18 -3 -30 -2 -13 1 -23 6 -23 4 0 8 -7 8 -16 0
-11 5 -14 16 -10 9 3 19 6 24 6 4 0 11 7 14 16 4 12 1 14 -13 9 -21 -6 -47 27
-36 45 3 6 1 10 -4 10 -6 0 -11 -3 -12 -7z"/>
<path d="M2551 1320 c0 -8 4 -22 9 -30 12 -18 12 -2 0 25 -6 13 -9 15 -9 5z"/>
<path d="M1690 1092 c-105 -20 -165 -162 -109 -261 11 -20 28 -41 38 -46 27
-15 84 -43 101 -49 8 -4 29 -15 45 -26 17 -11 42 -26 56 -34 17 -10 28 -26 31
-46 3 -16 2 -28 0 -25 -3 3 -12 -7 -21 -21 -13 -20 -25 -27 -58 -29 -25 -2
-43 1 -43 7 0 6 -7 8 -15 4 -8 -3 -15 -1 -15 3 0 5 -7 12 -16 15 -10 4 -13 2
-8 -6 4 -7 3 -8 -4 -4 -7 4 -12 13 -12 21 0 7 -7 15 -15 19 -8 3 -15 13 -15
21 0 9 -4 13 -10 10 -5 -3 -10 3 -10 13 0 17 -18 32 -36 32 -3 0 -9 -12 -15
-27 -14 -37 -20 -123 -8 -123 5 0 9 -6 9 -13 0 -16 38 -40 69 -45 14 -2 32 -7
40 -12 9 -4 36 -6 60 -4 23 2 52 -1 63 -7 12 -6 18 -7 14 -1 -3 5 12 12 33 16
46 7 136 74 139 102 0 10 5 43 10 72 5 29 5 55 0 58 -4 3 -8 14 -8 25 0 13 -4
18 -12 13 -8 -5 -9 -2 -5 9 3 10 3 17 -1 17 -13 0 -63 48 -55 52 4 3 3 3 -4 2
-19 -5 -156 67 -185 97 -34 35 -34 40 -3 69 29 27 84 29 121 5 13 -8 24 -12
24 -8 0 13 32 -38 34 -55 2 -10 13 -18 27 -20 18 -2 20 0 10 7 -8 5 -19 24
-25 42 -16 49 -67 79 -133 79 -47 0 -59 -4 -84 -29 -61 -61 -31 -108 116 -180
55 -27 114 -63 130 -81 26 -27 30 -39 30 -90 0 -70 -20 -103 -84 -138 -63 -36
-141 -39 -235 -12 -76 23 -76 23 -76 96 0 41 4 74 9 74 5 0 15 -19 23 -42 19
-59 70 -98 140 -105 89 -9 148 31 148 100 0 39 -42 74 -155 131 -128 66 -149
88 -150 162 -1 118 108 174 280 143 74 -13 74 -13 77 -78 3 -63 3 -64 8 -19 5
49 -5 109 -18 107 -4 -1 -9 0 -12 1 -32 12 -186 20 -230 12z"/>
<path d="M2468 1095 c-4 -4 -22 -9 -40 -10 -18 -2 -33 -4 -33 -5 0 -1 -9 -3
-19 -5 -10 -2 -23 -10 -27 -17 -5 -7 -9 -8 -9 -3 0 7 -3 7 -8 0 -4 -6 -24 -21
-45 -35 -24 -16 -35 -30 -31 -40 3 -8 2 -11 -2 -7 -10 10 -40 -43 -55 -95 -14
-52 -20 -200 -8 -192 5 3 9 -2 9 -11 0 -46 80 -142 140 -167 102 -44 116 -47
180 -43 84 4 113 11 163 37 115 58 187 215 158 345 -7 32 -13 63 -14 69 -2 6
-11 23 -20 37 -10 15 -14 27 -11 27 4 0 -13 15 -37 34 -23 19 -47 32 -53 29
-5 -4 -7 1 -2 12 5 15 4 16 -9 5 -10 -8 -15 -9 -15 -1 0 6 -7 11 -16 11 -8 0
-13 3 -11 8 3 4 -9 8 -26 9 -18 0 -59 4 -92 8 -33 4 -63 4 -67 0z m156 -24
c-2 -2 18 -14 44 -26 99 -47 156 -142 156 -260 1 -133 -75 -236 -202 -275 -82
-25 -127 -25 -205 1 -124 42 -198 138 -200 261 -2 92 18 148 72 208 67 74 138
101 253 98 47 -2 85 -5 82 -7z"/>
<path d="M2435 1026 c-40 -17 -90 -75 -106 -123 -19 -57 -17 -179 4 -235 48
-123 192 -174 298 -103 78 51 114 195 80 318 -15 52 -68 120 -112 142 -35 18
-123 19 -164 1z m160 -33 c19 -9 35 -23 35 -30 0 -7 4 -13 8 -13 16 0 43 -61
52 -117 10 -59 -4 -173 -21 -173 -4 0 -10 -13 -14 -30 -4 -17 -13 -30 -21 -30
-8 0 -17 -7 -21 -16 -3 -8 -12 -13 -20 -10 -8 3 -11 2 -8 -4 8 -12 -60 -24
-82 -14 -10 4 -22 9 -28 9 -25 4 -44 18 -38 28 4 6 0 8 -11 4 -9 -4 -14 -3
-11 2 3 5 -5 17 -17 25 -12 9 -19 16 -14 16 5 0 1 10 -10 22 -10 12 -13 18 -5
13 9 -5 8 0 -3 18 -25 37 -22 207 3 215 6 2 11 8 11 13 0 20 44 69 62 69 10 0
18 5 18 10 0 16 96 11 135 -7z"/>
<path d="M3106 1093 c-1 -1 -21 -5 -45 -8 -76 -9 -72 -20 7 -19 148 2 172 4
172 15 0 5 -4 7 -10 4 -5 -3 -16 -3 -22 2 -11 7 -96 12 -102 6z"/>
<path d="M3424 1090 c-5 -4 -20 -10 -34 -12 -18 -2 -24 -8 -22 -23 1 -11 3
-29 4 -40 2 -23 -31 -82 -49 -90 -19 -7 -43 5 -43 21 0 8 -5 14 -12 14 -6 0
-9 3 -5 6 3 4 -1 13 -9 21 -8 9 -13 21 -11 27 2 6 7 22 11 36 6 21 5 22 -4 8
-6 -10 -20 -18 -30 -18 -11 0 -20 -7 -20 -16 0 -17 98 -174 108 -174 4 1 31
36 60 79 50 75 63 110 42 112 -5 1 -15 2 -22 3 -6 0 -13 7 -15 14 -4 9 19 12
93 12 104 0 121 7 35 15 -28 2 -55 7 -60 9 -4 3 -12 1 -17 -4z"/>
<path d="M3560 1050 c0 -5 -10 -10 -23 -10 -27 0 -61 -34 -146 -147 -62 -82
-62 -82 -3 -165 31 -46 68 -100 81 -120 29 -49 67 -78 100 -77 14 0 20 3 13 6
-6 2 -10 9 -6 14 3 5 0 8 -7 7 -7 -2 -22 11 -34 29 -12 18 -25 29 -29 26 -3
-4 -6 1 -6 9 0 9 -7 22 -16 29 -21 18 -67 90 -67 106 0 7 -3 10 -7 8 -4 -2
-13 6 -19 19 -11 19 -10 29 3 55 9 17 21 31 26 31 6 0 10 7 10 16 0 9 10 25
23 36 12 11 22 23 22 27 0 4 25 31 55 59 30 29 49 52 43 52 -7 0 -13 -4 -13
-10z"/>
<path d="M3006 1033 c-3 -7 1 -13 9 -13 17 0 86 -70 80 -81 -3 -3 2 -13 11
-20 8 -7 22 -26 31 -42 8 -17 24 -40 35 -51 29 -31 19 -91 -21 -128 -17 -16
-31 -33 -31 -38 0 -4 -17 -26 -37 -47 -21 -21 -35 -40 -33 -43 2 -3 -9 -12
-25 -20 -28 -14 -29 -15 -8 -18 34 -5 54 14 147 136 86 112 86 112 24 204 -95
143 -114 165 -148 170 -18 3 -31 0 -34 -9z"/>
<path d="M3247 712 c-14 -20 -44 -63 -66 -96 -23 -32 -41 -63 -41 -68 0 -4 11
-13 25 -18 48 -18 24 -26 -74 -25 -91 0 -97 -1 -87 -17 6 -10 14 -18 19 -18 4
0 5 6 1 13 -6 9 -5 9 7 0 22 -17 123 -13 149 7 18 14 20 21 12 36 -7 14 -6 29
4 54 17 39 68 90 81 81 5 -3 23 -28 41 -56 23 -35 31 -57 27 -75 -9 -45 6 -54
102 -56 90 -2 153 14 153 39 0 7 -3 8 -8 2 -4 -6 -58 -10 -125 -10 -112 0
-145 8 -92 21 14 3 25 11 25 18 0 6 -29 55 -64 108 -63 98 -63 98 -89 60z"/>
<path d="M2042 414 c-14 -11 -5 -13 60 -14 64 0 77 -3 81 -17 4 -14 5 -12 6 5
1 17 -4 22 -22 22 -13 0 -29 6 -36 13 -11 10 -13 10 -7 0 8 -14 -6 -18 -18 -6
-12 12 -46 10 -64 -3z"/>
<path d="M3436 419 c2 -4 -2 -10 -8 -13 -7 -3 22 -4 65 -3 76 2 77 2 77 -23 0
-19 2 -22 9 -11 17 26 -6 51 -42 47 -17 -2 -36 -1 -42 2 -14 9 -65 9 -59 1z"/>
<path d="M1577 408 c-7 -4 18 -8 56 -8 37 0 67 4 67 9 0 10 -107 9 -123 -1z"/>
<path d="M1815 410 c-4 -6 5 -10 19 -10 14 0 26 5 26 10 0 6 -9 10 -19 10 -11
0 -23 -4 -26 -10z"/>
<path d="M2277 392 c-12 -13 -21 -26 -19 -28 1 -2 -4 -17 -12 -33 -24 -46 -2
-140 37 -158 47 -22 73 -29 107 -27 56 2 114 41 103 69 -2 7 1 23 6 38 8 21 7
25 -4 20 -8 -3 -15 -17 -15 -33 0 -31 -23 -55 -68 -71 -42 -15 -93 3 -128 44
-22 27 -25 38 -21 80 5 55 45 107 83 107 13 0 25 3 27 8 3 4 -13 7 -35 7 -28
0 -45 -6 -61 -23z m33 14 c0 -2 -8 -10 -17 -17 -16 -13 -17 -12 -4 4 13 16 21
21 21 13z"/>
<path d="M2400 408 c0 -4 10 -8 22 -8 12 0 30 -7 40 -17 20 -18 24 -6 5 17
-12 15 -67 22 -67 8z"/>
<path d="M3020 408 c0 -4 9 -8 20 -8 11 0 20 4 20 9 0 6 -9 9 -20 8 -11 -1
-20 -5 -20 -9z"/>
<path d="M3289 416 c-2 -3 -32 -6 -67 -7 -34 -1 -60 -4 -57 -7 2 -3 -7 -14
-21 -24 -14 -11 -23 -22 -20 -25 2 -2 -1 -15 -8 -28 -7 -14 -10 -42 -7 -70 5
-39 12 -53 42 -77 51 -41 122 -48 169 -16 31 21 35 29 37 68 1 45 1 45 -6 7
-13 -64 -80 -93 -144 -62 -56 26 -71 49 -71 110 -1 76 29 107 113 115 72 7 91
-4 91 -51 0 -34 0 -34 -20 -1 -17 27 -25 32 -59 32 -56 0 -81 -29 -81 -92 0
-39 5 -54 25 -73 44 -45 126 -24 124 31 0 18 -1 17 -9 -2 -4 -11 -23 -27 -40
-34 -36 -15 -42 -9 -67 57 -10 27 -9 35 3 48 8 8 13 19 9 25 -3 5 6 12 20 16
20 5 33 0 55 -21 33 -31 46 -28 52 15 4 24 -1 35 -20 51 -25 19 -35 23 -43 15z"/>
<path d="M2635 402 c-6 -4 -16 -20 -24 -37 -7 -16 -17 -38 -22 -47 -5 -10 -9
-25 -9 -33 0 -8 -5 -15 -11 -15 -5 0 -8 -4 -4 -9 3 -5 1 -12 -5 -16 -6 -4 -8
-10 -5 -15 2 -4 -4 -19 -14 -32 -13 -16 -17 -29 -10 -39 5 -8 9 -10 9 -6 0 4
9 3 19 -2 14 -8 22 -7 31 4 11 13 7 15 -26 15 -33 0 -36 2 -21 13 17 11 78
139 97 200 9 30 9 30 -5 19z"/>
<path d="M2696 328 c20 -46 40 -95 46 -110 5 -16 16 -28 24 -28 8 0 14 -5 14
-12 0 -6 2 -9 5 -6 3 2 -4 22 -15 43 -11 22 -20 47 -20 57 0 10 -5 18 -10 18
-10 0 -29 39 -34 69 -2 8 -8 17 -14 19 -7 2 -12 10 -12 18 0 8 -4 14 -10 14
-5 0 7 -37 26 -82z"/>
<path d="M2842 401 c-10 -6 -14 -37 -16 -108 -1 -54 -6 -105 -10 -112 -7 -10
-4 -11 13 -2 19 11 21 20 21 116 0 58 2 105 5 105 2 0 40 -37 84 -82 80 -83
80 -83 74 -13 -3 39 -11 73 -17 78 -8 5 -6 10 4 18 13 9 13 10 0 6 -9 -2 -17
-20 -20 -47 -5 -44 -5 -44 -23 -17 -9 15 -23 27 -30 27 -7 0 -20 9 -30 20 -18
21 -34 25 -55 11z"/>
<path d="M3073 403 c4 -6 0 -13 -8 -17 -12 -4 -15 -27 -15 -112 0 -59 3 -105
6 -101 4 3 6 48 6 99 0 68 4 97 15 110 11 12 11 18 2 24 -7 4 -10 3 -6 -3z"/>
<path d="M1872 388 c-8 -8 -12 -46 -12 -105 0 -93 0 -93 26 -93 34 0 64 17 64
37 0 13 -3 14 -12 5 -20 -20 -47 -14 -54 13 -3 14 -4 55 -1 90 2 36 4 65 3 65
-1 0 -7 -5 -14 -12z"/>
<path d="M2013 387 c5 -13 10 -140 8 -185 -1 -7 -6 -10 -12 -6 -8 5 -8 1 0
-14 17 -32 30 -36 100 -34 68 3 91 13 91 41 -1 14 -2 14 -11 -1 -8 -15 -24
-18 -91 -18 -78 0 -80 1 -65 18 13 14 17 38 17 103 0 75 -2 86 -21 98 -19 11
-21 11 -16 -2z"/>
<path d="M3406 277 c1 -89 5 -121 15 -128 8 -5 45 -7 84 -3 71 6 94 20 95 57
0 25 -9 21 -20 -8 -9 -24 -13 -25 -92 -25 -61 1 -78 3 -65 11 14 8 17 25 17
102 0 77 -3 94 -17 103 -17 10 -18 3 -17 -109z"/>
<path d="M1549 366 c10 -24 8 -167 -2 -183 -17 -27 20 -37 119 -35 44 2 52 5
63 28 6 15 9 29 6 32 -3 4 -8 -4 -12 -16 -5 -21 -11 -22 -92 -22 -63 1 -81 3
-68 11 24 14 26 194 1 203 -23 9 -24 8 -15 -18z"/>
<path d="M1785 384 c6 -2 9 -21 8 -42 -10 -152 -9 -173 6 -157 10 10 16 41 18
96 4 80 -5 110 -31 108 -7 0 -7 -2 -1 -5z"/>
<path d="M1620 341 c0 -39 2 -41 29 -41 17 0 31 6 35 16 3 8 2 13 -3 10 -5 -3
-12 1 -15 10 -5 12 -1 14 15 9 17 -6 20 -3 17 12 -2 13 -14 19 -41 21 -37 3
-37 3 -37 -37z"/>
<path d="M2090 341 c0 -39 2 -41 30 -41 29 0 35 8 30 39 -1 13 1 13 14 2 15
-12 15 -11 8 10 -7 18 -18 25 -46 27 -36 3 -36 3 -36 -37z m53 -6 c4 -8 3 -16
-1 -19 -13 -8 -35 11 -28 23 10 15 23 14 29 -4z"/>
<path d="M2324 355 c-24 -37 -21 -112 7 -141 25 -26 76 -33 97 -12 19 19 15
65 -6 70 -15 4 -18 1 -15 -16 5 -25 -27 -60 -34 -38 -3 6 -8 10 -13 7 -4 -3
-14 3 -21 12 -12 14 -12 15 -1 9 11 -7 12 -4 2 13 -8 17 -8 30 1 56 7 19 15
36 19 36 41 10 90 -13 90 -43 0 -7 5 -6 15 2 8 7 15 22 14 34 -1 19 -2 18 -8
-4 -7 -25 -7 -25 -24 8 -16 29 -22 32 -62 32 -36 0 -48 -5 -61 -25z"/>
<path d="M3480 337 c0 -42 1 -43 29 -39 22 3 29 9 28 23 -1 12 -7 17 -15 14
-7 -3 -10 0 -7 6 4 6 13 8 21 5 9 -3 14 2 14 14 0 16 -7 20 -35 20 -35 0 -35
0 -35 -43z"/>
<path d="M2632 307 c-16 -46 -16 -47 18 -47 17 0 30 2 30 4 0 7 -30 76 -33 76
-2 0 -8 -15 -15 -33z"/>
<path d="M2878 261 c2 -46 8 -71 17 -75 10 -4 11 2 5 25 -13 44 8 47 44 7 17
-19 36 -36 41 -39 6 -2 9 -8 7 -14 -2 -5 0 -7 3 -3 4 4 16 3 26 -3 11 -5 19
-7 19 -3 0 8 -151 174 -159 174 -3 0 -5 -31 -3 -69z"/>
<path d="M2160 290 c0 -19 3 -21 12 -12 9 9 9 15 0 24 -9 9 -12 7 -12 -12z"/>
<path d="M1699 261 c-4 -49 -23 -65 -32 -29 -6 23 -6 23 10 3 15 -19 15 -19 8
5 -9 28 -22 40 -47 40 -15 0 -18 -9 -18 -45 0 -44 0 -45 33 -45 46 0 64 24 57
75 -6 40 -6 40 -11 -4z"/>
<path d="M2434 288 c12 -7 25 -7 40 0 18 8 15 10 -18 10 -32 0 -36 -2 -22 -10z"/>
<path d="M2090 236 c0 -46 0 -46 35 -46 40 0 63 28 46 58 -6 9 -11 13 -11 7 0
-5 -4 -5 -8 2 -4 6 -20 15 -35 18 -26 7 -27 6 -27 -39z m74 -8 c-3 -4 -11 -5
-19 -1 -21 7 -19 12 4 10 11 0 18 -5 15 -9z"/>
<path d="M3480 235 c0 -46 0 -46 36 -43 26 2 41 10 53 28 15 25 15 25 -5 7
-21 -18 -41 -12 -24 7 13 16 -1 33 -33 41 -27 7 -27 6 -27 -40z"/>
<path d="M3561 264 c0 -11 3 -14 6 -6 3 7 2 16 -1 19 -3 4 -6 -2 -5 -13z"/>
<path d="M2599 224 c-13 -36 -1 -49 20 -23 18 22 18 22 39 1 12 -12 23 -25 23
-29 5 -25 14 -32 41 -29 16 2 35 9 41 15 8 8 0 11 -30 11 -36 0 -40 3 -36 19
8 32 -12 55 -52 58 -30 2 -37 -2 -46 -23z"/>
<path d="M2900 236 c0 -2 7 -7 16 -10 8 -3 12 -2 9 4 -6 10 -25 14 -25 6z"/>
<path d="M1967 213 c-4 -3 -7 -15 -7 -25 0 -16 -9 -18 -74 -18 -41 0 -81 -3
-90 -6 -16 -6 -12 -24 5 -24 6 0 7 5 3 12 -5 7 -3 8 7 2 8 -4 38 -8 67 -9 43
0 59 5 83 25 19 16 26 29 21 38 -5 7 -11 9 -15 5z"/>
<path d="M2825 160 c-7 -12 32 -12 60 0 16 7 13 9 -17 9 -20 1 -40 -3 -43 -9z"/>
</g>
</svg>
